solid g jaw_gum0.DwiM_teeth01.001_brace01.001
	facet normal 0 3.99979008385376 0.0409790813120203
		outer loop
			vertex -3.64107962450897 2.25718126098569 3.20065780817865
			vertex -1.64107962450897 2.25718126098569 3.20065780817865
			vertex -1.64107962450897 2.2776708016417 1.20076276625177
		endloop
	endfacet
	facet normal 0 3.99979008385376 0.0409790813120203
		outer loop
			vertex -3.64107962450897 2.25718126098569 3.20065780817865
			vertex -1.64107962450897 2.2776708016417 1.20076276625177
			vertex -3.64107962450897 2.2776708016417 1.20076276625177
		endloop
	endfacet
	facet normal 4 0 0
		outer loop
			vertex -1.64107962450897 2.25718126098569 3.20065780817865
			vertex -1.64107962450897 0.257286219058815 3.18016826752264
			vertex -1.64107962450897 0.277775759714826 1.18027322559576
		endloop
	endfacet
	facet normal 4 0 0
		outer loop
			vertex -1.64107962450897 2.25718126098569 3.20065780817865
			vertex -1.64107962450897 0.277775759714826 1.18027322559576
			vertex -1.64107962450897 2.2776708016417 1.20076276625177
		endloop
	endfacet
	facet normal 0 -3.99979008385376 -0.040979081312022
		outer loop
			vertex -1.64107962450897 0.257286219058815 3.18016826752264
			vertex -3.64107962450897 0.257286219058815 3.18016826752264
			vertex -3.64107962450897 0.277775759714826 1.18027322559576
		endloop
	endfacet
	facet normal 0 -3.99979008385376 -0.040979081312022
		outer loop
			vertex -1.64107962450897 0.257286219058815 3.18016826752264
			vertex -3.64107962450897 0.277775759714826 1.18027322559576
			vertex -1.64107962450897 0.277775759714826 1.18027322559576
		endloop
	endfacet
	facet normal -4 0 0
		outer loop
			vertex -3.64107962450897 0.257286219058815 3.18016826752264
			vertex -3.64107962450897 2.25718126098569 3.20065780817865
			vertex -3.64107962450897 2.2776708016417 1.20076276625177
		endloop
	endfacet
	facet normal -4 0 0
		outer loop
			vertex -3.64107962450897 0.257286219058815 3.18016826752264
			vertex -3.64107962450897 2.2776708016417 1.20076276625177
			vertex -3.64107962450897 0.277775759714826 1.18027322559576
		endloop
	endfacet
	facet normal 0 -0.0409790813120194 3.99979008385375
		outer loop
			vertex -3.64107962450897 2.25718126098569 3.20065780817865
			vertex -3.64107962450897 0.257286219058815 3.18016826752264
			vertex -1.64107962450897 0.257286219058815 3.18016826752264
		endloop
	endfacet
	facet normal 0 -0.0409790813120194 3.99979008385375
		outer loop
			vertex -3.64107962450897 2.25718126098569 3.20065780817865
			vertex -1.64107962450897 0.257286219058815 3.18016826752264
			vertex -1.64107962450897 2.25718126098569 3.20065780817865
		endloop
	endfacet
	facet normal 0 0.0409790813120199 -3.99979008385375
		outer loop
			vertex -3.64107962450897 2.2776708016417 1.20076276625177
			vertex -1.64107962450897 2.2776708016417 1.20076276625177
			vertex -1.64107962450897 0.277775759714826 1.18027322559576
		endloop
	endfacet
	facet normal 0 0.0409790813120199 -3.99979008385375
		outer loop
			vertex -3.64107962450897 2.2776708016417 1.20076276625177
			vertex -1.64107962450897 0.277775759714826 1.18027322559576
			vertex -3.64107962450897 0.277775759714826 1.18027322559576
		endloop
	endfacet
	facet normal 0 0 4
		outer loop
			vertex 5.98238117797337 2.94703456142312 18.0581891299138
			vertex 7.98238117797337 2.94703456142312 18.0581891299138
			vertex 7.98238117797337 4.94703456142312 18.0581891299138
		endloop
	endfacet
	facet normal 0 0 4
		outer loop
			vertex 5.98238117797337 2.94703456142312 18.0581891299138
			vertex 7.98238117797337 4.94703456142312 18.0581891299138
			vertex 5.98238117797337 4.94703456142312 18.0581891299138
		endloop
	endfacet
	facet normal 4 0 0
		outer loop
			vertex 7.98238117797337 2.94703456142312 18.0581891299138
			vertex 7.98238117797337 2.94703456142312 16.0581891299138
			vertex 7.98238117797337 4.94703456142312 16.0581891299138
		endloop
	endfacet
	facet normal 4 0 0
		outer loop
			vertex 7.98238117797337 2.94703456142312 18.0581891299138
			vertex 7.98238117797337 4.94703456142312 16.0581891299138
			vertex 7.98238117797337 4.94703456142312 18.0581891299138
		endloop
	endfacet
	facet normal 0 0 -4
		outer loop
			vertex 7.98238117797337 2.94703456142312 16.0581891299138
			vertex 5.98238117797337 2.94703456142312 16.0581891299138
			vertex 5.98238117797337 4.94703456142312 16.0581891299138
		endloop
	endfacet
	facet normal 0 0 -4
		outer loop
			vertex 7.98238117797337 2.94703456142312 16.0581891299138
			vertex 5.98238117797337 4.94703456142312 16.0581891299138
			vertex 7.98238117797337 4.94703456142312 16.0581891299138
		endloop
	endfacet
	facet normal -4 0 0
		outer loop
			vertex 5.98238117797337 2.94703456142312 16.0581891299138
			vertex 5.98238117797337 2.94703456142312 18.0581891299138
			vertex 5.98238117797337 4.94703456142312 18.0581891299138
		endloop
	endfacet
	facet normal -4 0 0
		outer loop
			vertex 5.98238117797337 2.94703456142312 16.0581891299138
			vertex 5.98238117797337 4.94703456142312 18.0581891299138
			vertex 5.98238117797337 4.94703456142312 16.0581891299138
		endloop
	endfacet
	facet normal 0 -4 0
		outer loop
			vertex 5.98238117797337 2.94703456142312 18.0581891299138
			vertex 5.98238117797337 2.94703456142312 16.0581891299138
			vertex 7.98238117797337 2.94703456142312 16.0581891299138
		endloop
	endfacet
	facet normal 0 -4 0
		outer loop
			vertex 5.98238117797337 2.94703456142312 18.0581891299138
			vertex 7.98238117797337 2.94703456142312 16.0581891299138
			vertex 7.98238117797337 2.94703456142312 18.0581891299138
		endloop
	endfacet
	facet normal 0 4 0
		outer loop
			vertex 5.98238117797337 4.94703456142312 18.0581891299138
			vertex 7.98238117797337 4.94703456142312 18.0581891299138
			vertex 7.98238117797337 4.94703456142312 16.0581891299138
		endloop
	endfacet
	facet normal 0 4 0
		outer loop
			vertex 5.98238117797337 4.94703456142312 18.0581891299138
			vertex 7.98238117797337 4.94703456142312 16.0581891299138
			vertex 5.98238117797337 4.94703456142312 16.0581891299138
		endloop
	endfacet
endsolid g jaw_gum0.DwiM_teeth01.001_brace01.001solid g jaw_gum0.DwiM_teeth01.001_brace01.001
	facet normal 0 3.99979008385376 0.0409790813120203
		outer loop
			vertex -3.64107962450897 2.25718126098569 3.20065780817865
			vertex -1.64107962450897 2.25718126098569 3.20065780817865
			vertex -1.64107962450897 2.2776708016417 1.20076276625177
		endloop
	endfacet
	facet normal 0 3.99979008385376 0.0409790813120203
		outer loop
			vertex -3.64107962450897 2.25718126098569 3.20065780817865
			vertex -1.64107962450897 2.2776708016417 1.20076276625177
			vertex -3.64107962450897 2.2776708016417 1.20076276625177
		endloop
	endfacet
	facet normal 4 0 0
		outer loop
			vertex -1.64107962450897 2.25718126098569 3.20065780817865
			vertex -1.64107962450897 0.257286219058815 3.18016826752264
			vertex -1.64107962450897 0.277775759714826 1.18027322559576
		endloop
	endfacet
	facet normal 4 0 0
		outer loop
			vertex -1.64107962450897 2.25718126098569 3.20065780817865
			vertex -1.64107962450897 0.277775759714826 1.18027322559576
			vertex -1.64107962450897 2.2776708016417 1.20076276625177
		endloop
	endfacet
	facet normal 0 -3.99979008385376 -0.040979081312022
		outer loop
			vertex -1.64107962450897 0.257286219058815 3.18016826752264
			vertex -3.64107962450897 0.257286219058815 3.18016826752264
			vertex -3.64107962450897 0.277775759714826 1.18027322559576
		endloop
	endfacet
	facet normal 0 -3.99979008385376 -0.040979081312022
		outer loop
			vertex -1.64107962450897 0.257286219058815 3.18016826752264
			vertex -3.64107962450897 0.277775759714826 1.18027322559576
			vertex -1.64107962450897 0.277775759714826 1.18027322559576
		endloop
	endfacet
	facet normal -4 0 0
		outer loop
			vertex -3.64107962450897 0.257286219058815 3.18016826752264
			vertex -3.64107962450897 2.25718126098569 3.20065780817865
			vertex -3.64107962450897 2.2776708016417 1.20076276625177
		endloop
	endfacet
	facet normal -4 0 0
		outer loop
			vertex -3.64107962450897 0.257286219058815 3.18016826752264
			vertex -3.64107962450897 2.2776708016417 1.20076276625177
			vertex -3.64107962450897 0.277775759714826 1.18027322559576
		endloop
	endfacet
	facet normal 0 -0.0409790813120194 3.99979008385375
		outer loop
			vertex -3.64107962450897 2.25718126098569 3.20065780817865
			vertex -3.64107962450897 0.257286219058815 3.18016826752264
			vertex -1.64107962450897 0.257286219058815 3.18016826752264
		endloop
	endfacet
	facet normal 0 -0.0409790813120194 3.99979008385375
		outer loop
			vertex -3.64107962450897 2.25718126098569 3.20065780817865
			vertex -1.64107962450897 0.257286219058815 3.18016826752264
			vertex -1.64107962450897 2.25718126098569 3.20065780817865
		endloop
	endfacet
	facet normal 0 0.0409790813120199 -3.99979008385375
		outer loop
			vertex -3.64107962450897 2.2776708016417 1.20076276625177
			vertex -1.64107962450897 2.2776708016417 1.20076276625177
			vertex -1.64107962450897 0.277775759714826 1.18027322559576
		endloop
	endfacet
	facet normal 0 0.0409790813120199 -3.99979008385375
		outer loop
			vertex -3.64107962450897 2.2776708016417 1.20076276625177
			vertex -1.64107962450897 0.277775759714826 1.18027322559576
			vertex -3.64107962450897 0.277775759714826 1.18027322559576
		endloop
	endfacet
	facet normal 0 0 4
		outer loop
			vertex 5.98238117797337 2.94703456142312 18.0581891299138
			vertex 7.98238117797337 2.94703456142312 18.0581891299138
			vertex 7.98238117797337 4.94703456142312 18.0581891299138
		endloop
	endfacet
	facet normal 0 0 4
		outer loop
			vertex 5.98238117797337 2.94703456142312 18.0581891299138
			vertex 7.98238117797337 4.94703456142312 18.0581891299138
			vertex 5.98238117797337 4.94703456142312 18.0581891299138
		endloop
	endfacet
	facet normal 4 0 0
		outer loop
			vertex 7.98238117797337 2.94703456142312 18.0581891299138
			vertex 7.98238117797337 2.94703456142312 16.0581891299138
			vertex 7.98238117797337 4.94703456142312 16.0581891299138
		endloop
	endfacet
	facet normal 4 0 0
		outer loop
			vertex 7.98238117797337 2.94703456142312 18.0581891299138
			vertex 7.98238117797337 4.94703456142312 16.0581891299138
			vertex 7.98238117797337 4.94703456142312 18.0581891299138
		endloop
	endfacet
	facet normal 0 0 -4
		outer loop
			vertex 7.98238117797337 2.94703456142312 16.0581891299138
			vertex 5.98238117797337 2.94703456142312 16.0581891299138
			vertex 5.98238117797337 4.94703456142312 16.0581891299138
		endloop
	endfacet
	facet normal 0 0 -4
		outer loop
			vertex 7.98238117797337 2.94703456142312 16.0581891299138
			vertex 5.98238117797337 4.94703456142312 16.0581891299138
			vertex 7.98238117797337 4.94703456142312 16.0581891299138
		endloop
	endfacet
	facet normal -4 0 0
		outer loop
			vertex 5.98238117797337 2.94703456142312 16.0581891299138
			vertex 5.98238117797337 2.94703456142312 18.0581891299138
			vertex 5.98238117797337 4.94703456142312 18.0581891299138
		endloop
	endfacet
	facet normal -4 0 0
		outer loop
			vertex 5.98238117797337 2.94703456142312 16.0581891299138
			vertex 5.98238117797337 4.94703456142312 18.0581891299138
			vertex 5.98238117797337 4.94703456142312 16.0581891299138
		endloop
	endfacet
	facet normal 0 -4 0
		outer loop
			vertex 5.98238117797337 2.94703456142312 18.0581891299138
			vertex 5.98238117797337 2.94703456142312 16.0581891299138
			vertex 7.98238117797337 2.94703456142312 16.0581891299138
		endloop
	endfacet
	facet normal 0 -4 0
		outer loop
			vertex 5.98238117797337 2.94703456142312 18.0581891299138
			vertex 7.98238117797337 2.94703456142312 16.0581891299138
			vertex 7.98238117797337 2.94703456142312 18.0581891299138
		endloop
	endfacet
	facet normal 0 4 0
		outer loop
			vertex 5.98238117797337 4.94703456142312 18.0581891299138
			vertex 7.98238117797337 4.94703456142312 18.0581891299138
			vertex 7.98238117797337 4.94703456142312 16.0581891299138
		endloop
	endfacet
	facet normal 0 4 0
		outer loop
			vertex 5.98238117797337 4.94703456142312 18.0581891299138
			vertex 7.98238117797337 4.94703456142312 16.0581891299138
			vertex 5.98238117797337 4.94703456142312 16.0581891299138
		endloop
	endfacet
	facet normal 0.255831458062339 -1.61278513007042 0.125073897931927
		outer loop
			vertex 7.02383744459339 3.44277344556962 17.122236807437
			vertex -2.52384237947232 0.771321078082238 2.2040017933849
			vertex 7.09961842301002 3.4508771291551 17.0717254064115
		endloop
	endfacet
	facet normal 0.255831458062346 -1.61278513007039 0.125073897931916
		outer loop
			vertex -2.52384237947232 0.771321078082238 2.2040017933849
			vertex 7.02383744459339 3.44277344556962 17.122236807437
			vertex -2.59962335788895 0.763217394496759 2.25451319441039
		endloop
	endfacet
	facet normal 0.494091466950444 -1.5609488889859 -0.0384873864375308
		outer loop
			vertex 7.09961842301002 3.4508771291551 17.0717254064115
			vertex -2.45182950257429 0.795371669780507 2.1530553252951
			vertex 7.17163129990805 3.47492772085337 17.0207789383217
		endloop
	endfacet
	facet normal 0.494091466950451 -1.56094888898593 -0.0384873864375272
		outer loop
			vertex -2.45182950257429 0.795371669780507 2.1530553252951
			vertex 7.09961842301002 3.4508771291551 17.0717254064115
			vertex -2.52384237947232 0.771321078082238 2.2040017933849
		endloop
	endfacet
	facet normal 0.716470969550969 -1.45894246625645 -0.200811654539347
		outer loop
			vertex 7.17163129990805 3.47492772085337 17.0207789383217
			vertex -2.38589928031076 0.83459616378549 2.10331125154427
			vertex 7.23756152217158 3.51415221485835 16.9710348645709
		endloop
	endfacet
	facet normal 0.716470969550954 -1.45894246625642 -0.200811654539347
		outer loop
			vertex -2.38589928031076 0.83459616378549 2.10331125154427
			vertex 7.17163129990805 3.47492772085337 17.0207789383217
			vertex -2.45182950257429 0.795371669780507 2.1530553252951
		endloop
	endfacet
	facet normal 0.915822505675806 -1.31004443223955 -0.356681670835886
		outer loop
			vertex 7.23756152217158 3.51415221485835 16.9710348645709
			vertex -2.32817076427286 0.887733852585846 2.05636838759233
			vertex 7.29529003820948 3.56728990365871 16.9240920006189
		endloop
	endfacet
	facet normal 0.915822505675813 -1.31004443223958 -0.356681670835886
		outer loop
			vertex -2.32817076427286 0.887733852585846 2.05636838759233
			vertex 7.23756152217158 3.51415221485835 16.9710348645709
			vertex -2.38589928031076 0.83459616378549 2.10331125154427
		endloop
	endfacet
	facet normal 1.08573875292699 -1.11904049226237 -0.501087644753117
		outer loop
			vertex 7.29529003820948 3.56728990365871 16.9240920006189
			vertex -2.2804993964652 0.953076847141696 2.01373551571142
			vertex 7.34296140601714 3.63263289821456 16.881459128738
		endloop
	endfacet
	facet normal 1.08573875292699 -1.11904049226237 -0.501087644753117
		outer loop
			vertex -2.2804993964652 0.953076847141696 2.01373551571142
			vertex 7.29529003820948 3.56728990365871 16.9240920006189
			vertex -2.32817076427286 0.887733852585846 2.05636838759233
		endloop
	endfacet
	facet normal 1.22075846331026 -0.892069670114296 -0.629388249471681
		outer loop
			vertex 7.34296140601714 3.63263289821456 16.881459128738
			vertex -2.24441737387327 1.02852496984362 1.97678289148222
			vertex 7.37904342860907 3.70808102091648 16.8445065045088
		endloop
	endfacet
	facet normal 1.22075846331025 -0.892069670114267 -0.629388249471681
		outer loop
			vertex -2.24441737387327 1.02852496984362 1.97678289148222
			vertex 7.34296140601714 3.63263289821456 16.881459128738
			vertex -2.2804993964652 0.953076847141696 2.01373551571142
		endloop
	endfacet
	facet normal 1.31654199223934 -0.636426994771398 -0.737459797989853
		outer loop
			vertex 7.37904342860907 3.70808102091648 16.8445065045088
			vertex -2.22108440239157 1.11165325594905 1.94669820265219
			vertex 7.40237640009078 3.79120930702191 16.8144218156788
		endloop
	endfacet
	facet normal 1.31654199223934 -0.63642699477137 -0.737459797989857
		outer loop
			vertex -2.22108440239157 1.11165325594905 1.94669820265219
			vertex 7.37904342860907 3.70808102091648 16.8445065045088
			vertex -2.24441737387327 1.02852496984362 1.97678289148222
		endloop
	endfacet
	facet normal 1.37001077828349 -0.36032903216261 -0.821828781816695
		outer loop
			vertex 7.40237640009078 3.79120930702191 16.8144218156788
			vertex -2.21125042292193 1.19978989394439 1.92444839587409
			vertex 7.41221037956041 3.87934594501725 16.7921720089007
		endloop
	endfacet
	facet normal 1.37001077828349 -0.36032903216261 -0.821828781816695
		outer loop
			vertex -2.21125042292193 1.19978989394439 1.92444839587409
			vertex 7.40237640009078 3.79120930702191 16.8144218156788
			vertex -2.22108440239157 1.11165325594905 1.94669820265219
		endloop
	endfacet
	facet normal 1.37944629066497 -0.0726497979804037 -0.879783512392969
		outer loop
			vertex 7.41221037956041 3.87934594501725 16.7921720089007
			vertex -2.21523150765595 1.29010209976539 1.91074859824496
			vertex 7.40822929482639 3.96965815083825 16.7784722112716
		endloop
	endfacet
	facet normal 1.37944629066497 -0.0726497979804321 -0.879783512392958
		outer loop
			vertex -2.21523150765595 1.29010209976539 1.91074859824496
			vertex 7.41221037956041 3.87934594501725 16.7921720089007
			vertex -2.21125042292193 1.19978989394439 1.92444839587409
		endloop
	endfacet
	facet normal 1.34454526425232 0.2173644604853 -0.909461276992655
		outer loop
			vertex 7.40822929482639 3.96965815083825 16.7784722112716
			vertex -2.23289970125462 1.37968716480783 1.90603913253285
			vertex 7.39056110122772 4.05924321588069 16.7737627455594
		endloop
	endfacet
	facet normal 1.34454526425231 0.217364460485328 -0.909461276992648
		outer loop
			vertex -2.23289970125462 1.37968716480783 1.90603913253285
			vertex 7.40822929482639 3.96965815083825 16.7784722112716
			vertex -2.21523150765595 1.29010209976539 1.91074859824496
		endloop
	endfacet
	facet normal 1.26642944675103 0.500392446342914 -0.909908207842548
		outer loop
			vertex 7.39056110122772 4.05924321588069 16.7737627455594
			vertex -2.26368713343824 1.46566575137042 1.91047136484069
			vertex 7.3597736690441 4.14522180244328 16.7781949778673
		endloop
	endfacet
	facet normal 1.26642944675103 0.500392446342914 -0.909908207842548
		outer loop
			vertex -2.26368713343824 1.46566575137042 1.91047136484069
			vertex 7.39056110122772 4.05924321588069 16.7737627455594
			vertex -2.23289970125462 1.37968716480783 1.90603913253285
		endloop
	endfacet
	facet normal 1.14760954480957 0.767337407250892 -0.881109940217431
		outer loop
			vertex 7.3597736690441 4.14522180244328 16.7781949778673
			vertex -2.30660427080446 1.54527443693762 1.92390283957526
			vertex 7.31685653167788 4.22483048801048 16.7916264526019
		endloop
	endfacet
	facet normal 1.14760954480958 0.767337407250864 -0.881109940217435
		outer loop
			vertex -2.30660427080446 1.54527443693762 1.92390283957526
			vertex 7.3597736690441 4.14522180244328 16.7781949778673
			vertex -2.26368713343824 1.46566575137042 1.91047136484069
		endloop
	endfacet
	facet normal 0.991904527841648 1.00961951252239 -0.823992074134044
		outer loop
			vertex 7.31685653167788 4.22483048801048 16.7916264526019
			vertex -2.36027172124597 1.61595453285305 1.94590185808714
			vertex 7.26318908123637 4.29551058392591 16.8136254711137
		endloop
	endfacet
	facet normal 0.991904527841655 1.00961951252239 -0.823992074134044
		outer loop
			vertex -2.36027172124597 1.61595453285305 1.94590185808714
			vertex 7.31685653167788 4.22483048801048 16.7916264526019
			vertex -2.30660427080446 1.54527443693762 1.92390283957526
		endloop
	endfacet
	facet normal 0.804318883207124 1.21945161594377 -0.74039042480505
		outer loop
			vertex 7.26318908123637 4.29551058392591 16.8136254711137
			vertex -2.42296456874787 1.67543432267821 1.9757613538205
			vertex 7.20049623373447 4.35499037375107 16.8434849668471
		endloop
	endfacet
	facet normal 0.804318883207124 1.2194516159438 -0.740390424805056
		outer loop
			vertex -2.42296456874787 1.67543432267821 1.9757613538205
			vertex 7.26318908123637 4.29551058392591 16.8136254711137
			vertex -2.36027172124597 1.61595453285305 1.94590185808714
		endloop
	endfacet
	facet normal 0.590881767870549 1.3900895410606 -0.632992018027561
		outer loop
			vertex 7.20049623373447 4.35499037375107 16.8434849668471
			vertex -2.4926678136076 1.721802077028 2.012521618014
			vertex 7.13079298887474 4.40135812810086 16.8802452310406
		endloop
	endfacet
	facet normal 0.590881767870549 1.3900895410606 -0.632992018027561
		outer loop
			vertex -2.4926678136076 1.721802077028 2.012521618014
			vertex 7.20049623373447 4.35499037375107 16.8434849668471
			vertex -2.42296456874787 1.67543432267821 1.9757613538205
		endloop
	endfacet
	facet normal 0.358453226335477 1.51604884455824 -0.505248726963096
		outer loop
			vertex 7.13079298887474 4.40135812810086 16.8802452310406
			vertex -2.56714113618334 1.75356749812608 2.05500114553002
			vertex 7.056319666299 4.43312354919894 16.9227247585566
		endloop
	endfacet
	facet normal 0.358453226335477 1.51604884455824 -0.505248726963096
		outer loop
			vertex -2.56714113618334 1.75356749812608 2.05500114553002
			vertex 7.13079298887474 4.40135812810086 16.8802452310406
			vertex -2.4926678136076 1.721802077028 2.012521618014
		endloop
	endfacet
	facet normal 0.114503703169682 1.59328109078262 -0.361266326093997
		outer loop
			vertex 7.056319666299 4.43312354919894 16.9227247585566
			vertex -2.64399090261066 1.7697096192017 2.10183460940191
			vertex 6.97946989987168 4.44926567027456 16.9695582224285
		endloop
	endfacet
	facet normal 0.114503703169682 1.59328109078262 -0.361266326093997
		outer loop
			vertex -2.64399090261066 1.7697096192017 2.10183460940191
			vertex 7.056319666299 4.43312354919894 16.9227247585566
			vertex -2.56714113618334 1.75356749812608 2.05500114553002
		endloop
	endfacet
	facet normal -0.133126063229945 1.61930397179319 -0.205672528253306
		outer loop
			vertex 6.97946989987168 4.44926567027456 16.9695582224285
			vertex -2.72074709816438 1.7697096192017 2.15151674356612
			vertex 6.90271370431796 4.44926567027456 17.0192403565927
		endloop
	endfacet
	facet normal -0.133126063229952 1.61930397179322 -0.205672528253306
		outer loop
			vertex -2.72074709816438 1.7697096192017 2.15151674356612
			vertex 6.97946989987168 4.44926567027456 16.9695582224285
			vertex -2.64399090261066 1.7697096192017 2.10183460940191
		endloop
	endfacet
	facet normal -0.376477048420867 1.59328109078262 -0.043468246126654
		outer loop
			vertex 6.90271370431796 4.44926567027456 17.0192403565927
			vertex -2.79494271556421 1.75356749812608 2.20245072335204
			vertex 6.82851808691813 4.43312354919894 17.0701743363786
		endloop
	endfacet
	facet normal -0.376477048420881 1.59328109078262 -0.0434682461266469
		outer loop
			vertex -2.79494271556421 1.75356749812608 2.20245072335204
			vertex 6.90271370431796 4.44926567027456 17.0192403565927
			vertex -2.72074709816438 1.7697096192017 2.15151674356612
		endloop
	endfacet
	facet normal -0.60772775150923 1.51604884455824 0.12013314119633
		outer loop
			vertex 6.82851808691813 4.43312354919894 17.0701743363786
			vertex -2.86419304661854 1.721802077028 2.25299948874072
			vertex 6.7592677558638 4.40135812810086 17.1207231017673
		endloop
	endfacet
	facet normal -0.607727751509216 1.51604884455824 0.120133141196323
		outer loop
			vertex -2.86419304661854 1.721802077028 2.25299948874072
			vertex 6.82851808691813 4.43312354919894 17.0701743363786
			vertex -2.79494271556421 1.75356749812608 2.20245072335204
		endloop
	endfacet
	facet normal -0.81944558462397 1.3900895410606 0.279873350515349
		outer loop
			vertex 6.7592677558638 4.40135812810086 17.1207231017673
			vertex -2.92627232870794 1.67543432267821 2.3015383608209
			vertex 6.6971884737744 4.35499037375108 17.1692619738475
		endloop
	endfacet
	facet normal -0.819445584623978 1.39008954106058 0.279873350515359
		outer loop
			vertex -2.92627232870794 1.67543432267821 2.3015383608209
			vertex 6.7592677558638 4.40135812810086 17.1207231017673
			vertex -2.86419304661854 1.721802077028 2.25299948874072
		endloop
	endfacet
	facet normal -1.00482576240687 1.21945161594377 0.430618200068285
		outer loop
			vertex 6.6971884737744 4.35499037375108 17.1692619738475
			vertex -2.97918528262704 1.61595453285305 2.34650726030601
			vertex 6.6442755198553 4.29551058392591 17.2142308733326
		endloop
	endfacet
	facet normal -1.00482576240685 1.21945161594377 0.430618200068274
		outer loop
			vertex -2.97918528262704 1.61595453285305 2.34650726030601
			vertex 6.6971884737744 4.35499037375108 17.1692619738475
			vertex -2.92627232870794 1.67543432267821 2.3015383608209
		endloop
	endfacet
	facet normal -1.1579100134126 1.00961951252242 0.567522626357164
		outer loop
			vertex 6.6442755198553 4.29551058392591 17.2142308733326
			vertex -3.02123124249997 1.54527443693762 2.38646084976607
			vertex 6.60222955998237 4.22483048801048 17.2541844627927
		endloop
	endfacet
	facet normal -1.1579100134126 1.00961951252245 0.567522626357164
		outer loop
			vertex -3.02123124249997 1.54527443693762 2.38646084976607
			vertex 6.6442755198553 4.29551058392591 17.2142308733326
			vertex -2.97918528262704 1.61595453285305 2.34650726030601
		endloop
	endfacet
	facet normal -1.27377808385571 0.767337407250835 0.686186408475759
		outer loop
			vertex 6.60222955998237 4.22483048801048 17.2541844627927
			vertex -3.05105881658087 1.46566575137042 2.4201149879619
			vertex 6.57240198590147 4.14522180244328 17.2878386009885
		endloop
	endfacet
	facet normal -1.27377808385571 0.767337407250835 0.686186408475759
		outer loop
			vertex -3.05105881658087 1.46566575137042 2.4201149879619
			vertex 6.60222955998237 4.22483048801048 17.2541844627927
			vertex -3.02123124249997 1.54527443693762 2.38646084976607
		endloop
	endfacet
	facet normal -1.34870587861562 0.500392446342971 0.782795594829881
		outer loop
			vertex 6.57240198590147 4.14522180244328 17.2878386009885
			vertex -3.06770932209658 1.37968716480783 2.44638800320118
			vertex 6.55575148038576 4.05924321588069 17.3141116162278
		endloop
	endfacet
	facet normal -1.34870587861562 0.500392446342943 0.782795594829885
		outer loop
			vertex -3.06770932209658 1.37968716480783 2.44638800320118
			vertex 6.57240198590147 4.14522180244328 17.2878386009885
			vertex -3.05105881658087 1.46566575137042 2.4201149879619
		endloop
	endfacet
	facet normal -1.38028515671792 0.217364460485243 0.854245086679828
		outer loop
			vertex 6.55575148038576 4.05924321588069 17.3141116162278
			vertex -3.07064759809974 1.29010209976539 2.4644354591566
			vertex 6.5528132043826 3.96965815083825 17.3321590721832
		endloop
	endfacet
	facet normal -1.38028515671791 0.2173644604853 0.854245086679818
		outer loop
			vertex -3.07064759809974 1.29010209976539 2.4644354591566
			vertex 6.55575148038576 4.05924321588069 17.3141116162278
			vertex -3.06770932209658 1.37968716480783 2.44638800320118
		endloop
	endfacet
	facet normal -1.36750093418089 -0.0726497979804037 0.898238438568658
		outer loop
			vertex 6.5528132043826 3.96965815083825 17.3321590721832
			vertex -3.05977920598198 1.19978989394439 2.47367729574427
			vertex 6.56368159650036 3.87934594501725 17.3414009087709
		endloop
	endfacet
	facet normal -1.36750093418089 -0.0726497979804321 0.898238438568665
		outer loop
			vertex -3.05977920598198 1.19978989394439 2.47367729574427
			vertex 6.5528132043826 3.96965815083825 17.3321590721832
			vertex -3.07064759809974 1.29010209976539 2.4644354591566
		endloop
	endfacet
	facet normal -1.31076410643578 -0.360329032162554 0.913361667968854
		outer loop
			vertex 6.56368159650036 3.87934594501725 17.3414009087709
			vertex -3.03545346480852 1.11165325594905 2.47381647273204
			vertex 6.58800733767382 3.79120930702192 17.3415400857586
		endloop
	endfacet
	facet normal -1.31076410643578 -0.360329032162554 0.913361667968857
		outer loop
			vertex -3.03545346480852 1.11165325594905 2.47381647273204
			vertex 6.56368159650036 3.87934594501725 17.3414009087709
			vertex -3.05977920598198 1.19978989394439 2.47367729574427
		endloop
	endfacet
	facet normal -1.21189824180951 -0.63642699477137 0.89912870184406
		outer loop
			vertex 6.58800733767382 3.79120930702192 17.3415400857586
			vertex -2.99845222391596 1.02852496984362 2.46484851685702
			vertex 6.62500857856638 3.70808102091648 17.3325721298836
		endloop
	endfacet
	facet normal -1.21189824180952 -0.636426994771341 0.899128701844056
		outer loop
			vertex -2.99845222391596 1.02852496984362 2.46484851685702
			vertex 6.58800733767382 3.79120930702192 17.3415400857586
			vertex -3.03545346480852 1.11165325594905 2.47381647273204
		endloop
	endfacet
	facet normal -1.07408097053831 -0.892069670114239 0.855996999436424
		outer loop
			vertex 6.62500857856638 3.70808102091648 17.3325721298836
			vertex -2.9499647336313 0.953076847141696 2.44706166559988
			vertex 6.67349606885104 3.63263289821456 17.3147852786265
		endloop
	endfacet
	facet normal -1.07408097053831 -0.892069670114239 0.855996999436424
		outer loop
			vertex -2.9499647336313 0.953076847141696 2.44706166559988
			vertex 6.62500857856638 3.70808102091648 17.3325721298836
			vertex -2.99845222391596 1.02852496984362 2.46484851685702
		endloop
	endfacet
	facet normal -0.901741853117216 -1.1190404922624 0.785352849150229
		outer loop
			vertex 6.67349606885104 3.63263289821456 17.3147852786265
			vertex -2.89154942178793 0.887733852585846 2.4210276029951
			vertex 6.73191138069441 3.56728990365871 17.2887512160217
		endloop
	endfacet
	facet normal -0.901741853117222 -1.1190404922624 0.785352849150232
		outer loop
			vertex -2.89154942178793 0.887733852585846 2.4210276029951
			vertex 6.67349606885104 3.63263289821456 17.3147852786265
			vertex -2.9499647336313 0.953076847141696 2.44706166559988
		endloop
	endfacet
	facet normal -0.700420010581304 -1.31004443223955 0.68946681210187
		outer loop
			vertex 6.73191138069441 3.56728990365871 17.2887512160217
			vertex -2.82508380457279 0.83459616378549 2.3875830852357
			vertex 6.79837699790955 3.51415221485835 17.2553066982623
		endloop
	endfacet
	facet normal -0.700420010581297 -1.31004443223952 0.689466812101866
		outer loop
			vertex -2.82508380457279 0.83459616378549 2.3875830852357
			vertex 6.73191138069441 3.56728990365871 17.2887512160217
			vertex -2.89154942178793 0.887733852585846 2.4210276029951
		endloop
	endfacet
	facet normal -0.476586092597763 -1.45894246625642 0.57142074441737
		outer loop
			vertex 6.79837699790955 3.51415221485835 17.2553066982623
			vertex -2.75270414161125 0.795371669780507 2.3478030466407
			vertex 6.8707566608711 3.47492772085337 17.2155266596673
		endloop
	endfacet
	facet normal -0.476586092597763 -1.45894246625645 0.571420744417374
		outer loop
			vertex -2.75270414161125 0.795371669780507 2.3478030466407
			vertex 6.79837699790955 3.51415221485835 17.2553066982623
			vertex -2.82508380457279 0.83459616378549 2.3875830852357
		endloop
	endfacet
	facet normal -0.237434305461818 -1.56094888898596 0.435008743840754
		outer loop
			vertex 6.8707566608711 3.47492772085337 17.2155266596673
			vertex -2.67673677482508 0.771321078082238 2.30296605038168
			vertex 6.94672402765726 3.4508771291551 17.1706896634083
		endloop
	endfacet
	facet normal -0.237434305461811 -1.56094888898593 0.435008743840747
		outer loop
			vertex -2.67673677482508 0.771321078082238 2.30296605038168
			vertex 6.8707566608711 3.47492772085337 17.2155266596673
			vertex -2.75270414161125 0.795371669780507 2.3478030466407
		endloop
	endfacet
	facet normal 0.00934881561329348 -1.61278513007045 0.28461520431069
		outer loop
			vertex 6.94672402765726 3.4508771291551 17.1706896634083
			vertex -2.59962335788895 0.763217394496759 2.25451319441039
			vertex 7.02383744459339 3.44277344556962 17.122236807437
		endloop
	endfacet
	facet normal 0.00934881561328638 -1.61278513007045 0.284615204310697
		outer loop
			vertex -2.59962335788895 0.763217394496759 2.25451319441039
			vertex 6.94672402765726 3.4508771291551 17.1706896634083
			vertex -2.67673677482508 0.771321078082238 2.30296605038168
		endloop
	endfacet
	facet normal 0 0 0
		outer loop
			vertex 7.02383744459339 3.44277344556962 17.122236807437
			vertex -2.59962335788895 0.763217394496759 2.25451319441039
			vertex 7.02383744459339 3.44277344556962 17.122236807437
		endloop
	endfacet
	facet normal 0 -0.000000000000028421709430404 0.0000000000000035527136788005
		outer loop
			vertex -2.59962335788895 0.763217394496759 2.25451319441039
			vertex 7.02383744459339 3.44277344556962 17.122236807437
			vertex -2.59962335788895 0.763217394496759 2.25451319441039
		endloop
	endfacet
endsolid g jaw_gum0.DwiM_teeth01.001_brace01.001